<?xml version="1.0" encoding="UTF-8"?>
<svg id="Layer_1" data-name="Layer 1" xmlns="http://www.w3.org/2000/svg" viewBox="0 0 1500 500">
  <defs>
    <style>
      .cls-1 {
        fill: #df2427;
      }

      .cls-2 {
        fill: #fff;
      }
    </style>
  </defs>
  <g>
    <path d="M845,227.67c-2.77-2.14-4.93-5.02-6.17-8.38-1.24,3.35-3.4,6.23-6.17,8.38h-5v2.79c5.17,1.91,9.25,5.99,11.17,11.17,1.91-5.17,5.99-9.25,11.17-11.17v-2.79h-5Z"/>
    <path class="cls-1" d="M838.83,216.5h0c1.91,5.17,5.99,9.25,11.17,11.17-5.17,1.91-9.25,5.99-11.17,11.17-1.91-5.17-5.99-9.25-11.17-11.17,5.17-1.91,9.25-5.99,11.17-11.17Z"/>
    <path class="cls-2" d="M838.35,221.41l.48-1.31.48,1.31c.17.46.54.83,1,1l1.31.48-1.31.48c-.46.17-.83.54-1,1l-.48,1.31-.48-1.31c-.17-.46-.54-.83-1-1l-1.31-.48,1.31-.48c.46-.17.83-.54,1-1Z"/>
    <path class="cls-1" d="M838.71,221.53l.12-.33.12.33c.04.12.13.21.25.25l.33.12-.33.12c-.12.04-.21.13-.25.25l-.12.33-.12-.33c-.04-.12-.13-.21-.25-.25l-.33-.12.33-.12c.12-.04.21-.13.25-.25Z"/>
  </g>
  <g>
    <path d="M650,273.21h.01s-.01,5.16-.01,5.16h38.63v-5.16s0-21.55,0-21.55v-5.16h-38.56s-.07,26.71-.07,26.71ZM679.13,260.82v3.24s-19.64,0-19.64,0v-3.17s19.64-.08,19.64-.08Z"/>
    <polygon points="733.99 251.67 733.99 265.24 733.46 265.24 733.99 265.47 733.99 281.43 705.49 268.01 705.49 278.36 692.56 278.36 692.56 246.51 705.49 246.51 705.49 262.84 713.55 251.67 733.99 251.67"/>
    <path d="M757.19,246.51l-15.63,21.66-3.63,5.03v5.17h36.82s6.59-9.13,6.59-9.13v9.13h14.41s0-31.86,0-31.86h-38.56ZM781.34,264.07h-16.97s2.29-3.18,2.29-3.18h14.69s0,3.18,0,3.18Z"/>
    <polygon points="832.36 251.67 832.36 256.83 832.36 264.8 823.28 264.8 829.19 256.83 829.19 251.67 801.7 251.67 801.7 256.83 801.7 260.07 801.7 265.24 805.53 265.24 799.66 273.21 799.66 278.38 832.4 278.38 832.4 283.5 845.31 283.5 845.31 278.34 845.31 256.83 845.31 251.67 832.36 251.67"/>
  </g>
  <g>
    <path class="cls-1" d="M650.07,246.5h38.56s0,26.71,0,26.71h-38.63M679.13,264.06v-8.41s-19.64.08-19.64.08v8.33s19.64,0,19.64,0Z"/>
    <path class="cls-1" d="M705.49,246.5v26.71s-12.95,0-12.95,0v-26.71s12.95,0,12.95,0ZM734,276.26l-28.51-13.41,8.05-11.18h20.45s0,8.41,0,8.41l-12.79-.12,12.79,5.51v10.79Z"/>
    <path class="cls-1" d="M795.74,246.5v26.71s-14.39,0-14.39,0v-9.15s-6.61,9.15-6.61,9.15h-36.8s19.24-26.71,19.24-26.71h38.56ZM781.35,264.06v-8.33h-14.7s-6.02,8.33-6.02,8.33h20.73Z"/>
    <path class="cls-1" d="M845.31,251.67v26.67s-12.91,0-12.91,0v-5.12h-32.73s9.66-13.14,9.66-13.14h-7.63s0-8.41,0-8.41h27.49s-9.74,13.14-9.74,13.14h12.91v-13.14s12.95,0,12.95,0Z"/>
  </g>
</svg>