<?xml version="1.0" encoding="UTF-8"?>
<svg id="Layer_1" data-name="Layer 1" xmlns="http://www.w3.org/2000/svg" viewBox="0 0 160 160">
  <defs>
    <style>
      .cls-1 {
        fill: #df2427;
      }

      .cls-2 {
        fill: #fff;
      }
    </style>
  </defs>
  <g>
    <path d="M137.99,66.37c-1.69-1.31-3.01-3.07-3.77-5.11-.76,2.05-2.08,3.81-3.77,5.11h-3.05v1.7c3.16,1.17,5.65,3.66,6.82,6.82,1.17-3.16,3.66-5.65,6.82-6.82v-1.7h-3.05Z"/>
    <path class="cls-1" d="M134.23,59.55h0c1.17,3.16,3.66,5.65,6.82,6.82-3.16,1.17-5.65,3.66-6.82,6.82-1.17-3.16-3.66-5.65-6.82-6.82,3.16-1.17,5.65-3.66,6.82-6.82Z"/>
    <path class="cls-2" d="M134.04,62.27l.19-.51.19.51c.17.46.54.83,1,1l.51.19-.51.19c-.46.17-.83.54-1,1l-.19.51-.19-.51c-.17-.46-.54-.83-1-1l-.51-.19.51-.19c.46-.17.83-.54,1-1Z"/>
    <path class="cls-1" d="M134.18,62.55l.05-.13.05.13c.04.12.13.21.25.25l.13.05-.13.05c-.12.04-.21.13-.25.25l-.05.13-.05-.13c-.04-.12-.13-.21-.25-.25l-.13-.05.13-.05c.12-.04.21-.13.25-.25Z"/>
  </g>
  <g>
    <path d="M18.96,94.17h0s0,3.15,0,3.15h23.58v-3.15s0-13.15,0-13.15v-3.15h-23.54s-.04,16.31-.04,16.31ZM36.74,86.6v1.98s-11.99,0-11.99,0v-1.93s11.99-.05,11.99-.05Z"/>
    <polygon points="70.23 81.02 70.23 89.3 69.9 89.3 70.23 89.44 70.23 99.19 52.83 90.99 52.83 97.31 44.94 97.31 44.94 77.87 52.83 77.87 52.83 87.84 57.75 81.02 70.23 81.02"/>
    <path d="M84.39,77.87l-9.54,13.23-2.22,3.07v3.15h22.48s4.02-5.57,4.02-5.57v5.57h8.79v-19.45s-23.54,0-23.54,0ZM99.13,88.59h-10.36s1.4-1.94,1.4-1.94h8.96s0,1.94,0,1.94Z"/>
    <polygon points="130.28 81.02 130.28 84.17 130.28 89.04 124.73 89.04 128.34 84.17 128.34 81.02 111.56 81.02 111.56 84.17 111.56 86.15 111.56 89.3 113.9 89.3 110.32 94.17 110.32 97.32 130.3 97.32 130.3 100.45 138.18 100.45 138.18 97.3 138.18 84.17 138.18 81.02 130.28 81.02"/>
  </g>
  <g>
    <path class="cls-1" d="M19,77.86h23.54s0,16.31,0,16.31h-23.58M36.74,88.58v-5.13s-11.99.05-11.99.05v5.08s11.99,0,11.99,0Z"/>
    <path class="cls-1" d="M52.83,77.86v16.31s-7.9,0-7.9,0v-16.31s7.9,0,7.9,0ZM70.23,96.03l-17.4-8.19,4.92-6.83h12.49s0,5.13,0,5.13l-7.81-.07,7.81,3.37v6.59Z"/>
    <path class="cls-1" d="M107.92,77.86v16.31s-8.79,0-8.79,0v-5.59s-4.03,5.59-4.03,5.59h-22.46s11.75-16.31,11.75-16.31h23.54ZM99.13,88.58v-5.08h-8.98s-3.68,5.08-3.68,5.08h12.65Z"/>
    <path class="cls-1" d="M138.18,81.02v16.28s-7.88,0-7.88,0v-3.13h-19.98s5.9-8.02,5.9-8.02h-4.66s0-5.13,0-5.13h16.78s-5.94,8.02-5.94,8.02h7.88v-8.02s7.9,0,7.9,0Z"/>
  </g>
</svg>