<?xml version="1.0" encoding="UTF-8"?>
<svg id="Layer_1" data-name="Layer 1" xmlns="http://www.w3.org/2000/svg" viewBox="0 0 160 160">
  <path d="M118.67,124.84c2.7,0,5.2,1.48,6.51,3.83.61,1.11.92,2.32.92,3.6,0,4.1-3.33,7.43-7.43,7.43s-7.43-3.33-7.43-7.43c0-1.28.31-2.49.91-3.58,1.31-2.37,3.81-3.85,6.52-3.85M118.67,115.84c-6.2,0-11.59,3.43-14.39,8.49-1.3,2.36-2.04,5.06-2.04,7.94,0,9.07,7.35,16.43,16.43,16.43s16.43-7.36,16.43-16.43c0-2.88-.74-5.58-2.04-7.94-2.81-5.06-8.2-8.49-14.39-8.49h0Z"/>
  <path d="M63.87,124.84c2.71,0,5.2,1.47,6.51,3.83.61,1.11.92,2.32.92,3.6,0,4.1-3.33,7.43-7.43,7.43s-7.43-3.33-7.43-7.43c0-1.28.31-2.49.9-3.55.34-.6.74-1.15,1.19-1.62.37-.37.78-.71,1.17-.98,1.23-.83,2.67-1.27,4.17-1.27M63.87,115.84c-3.41,0-6.58,1.04-9.21,2.82-.92.63-1.78,1.35-2.56,2.14-1.02,1.05-1.9,2.24-2.62,3.53-1.3,2.36-2.04,5.06-2.04,7.94,0,9.07,7.36,16.43,16.43,16.43s16.43-7.36,16.43-16.43c0-2.88-.74-5.58-2.04-7.94-2.8-5.06-8.19-8.49-14.39-8.49h0Z"/>
  <path d="M127.18,104.75c.07,0,.15,0,.22-.01.09.01.17.01.26.01,2.09,0,4.05-1.3,4.78-3.39l21.54-61.5c.92-2.64-.47-5.53-3.11-6.45-.56-.2-1.12-.29-1.68-.29H42.07l-3.9-11.13v-.02c-.39-1.73-1.67-3.21-3.5-3.76l-22.42-6.69c-2.69-.8-5.51.73-6.31,3.41-.14.48-.21.97-.21,1.45,0,2.18,1.42,4.19,3.62,4.85l19.9,5.94,24.19,69.07-9.24,21.05-.02.04c-.24.59-.38,1.25-.38,1.93,0,1.4.57,2.67,1.49,3.58.91.92,2.18,1.49,3.58,1.49h.61c.72-1.29,1.6-2.48,2.62-3.53.78-.79,1.64-1.51,2.56-2.14,2.63-1.78,5.8-2.82,9.21-2.82,6.2,0,11.59,3.43,14.39,8.49h26.02c2.8-5.06,8.19-8.49,14.39-8.49s11.58,3.43,14.39,8.49h3.95c2.8,0,5.07-2.27,5.07-5.07,0-1.4-.57-2.66-1.49-3.58-.91-.92-2.18-1.48-3.58-1.48H56.62l4.15-9.45h66.41ZM45.62,43.25h96.44l-17.99,51.37h-60.46l-17.99-51.37Z"/>
</svg>